<svg width="360" height="70" viewBox="0 0 360 70" fill="none" xmlns="http://www.w3.org/2000/svg">
<g clip-path="url(#clip0)">
<path d="M50.112 11.6033H12.96C6.99529 11.6033 2.15997 17.9905 2.15997 25.8696V44.5109C2.15997 52.3901 6.99529 58.7772 12.96 58.7772H50.112C56.0767 58.7772 60.912 52.3901 60.912 44.5109V25.8696C60.912 17.9905 56.0767 11.6033 50.112 11.6033Z" stroke="white" stroke-width="7" stroke-linecap="round"/>
<path d="M86.616 59.5392L62.3091 35L86.616 10.4609V59.5392Z" stroke="white" stroke-width="7"/>
<path d="M124.04 32.2609L118.732 47.0522C117.958 49.0244 116.99 50.0104 115.829 50.0104C114.695 50.0104 113.742 48.9696 112.967 46.8878L107.576 32.2609V55.5435H101.811V16.5383H107.493L115.829 39.0539L124.123 16.5383H129.805V55.5435H124.04V32.2609Z" fill="white"/>
<path d="M139.095 55.5435H133.33V16.5383H139.095V55.5435Z" fill="white"/>
<path d="M159.204 40.4235H164.554C164.554 45.3904 163.614 49.207 161.734 51.873C159.854 54.5391 157.2 55.8722 153.771 55.8722C146.223 55.8722 142.449 50.0104 142.449 38.287V35C142.449 25.76 144.385 19.9713 148.255 17.6339C149.776 16.6843 151.615 16.2096 153.771 16.2096C156.923 16.2096 159.481 17.36 161.444 19.6609C163.434 21.9252 164.43 25.2122 164.43 29.5217H159.038C158.734 27.367 158.195 25.7417 157.421 24.6461C156.647 23.5504 155.43 23.0026 153.771 23.0026C151.836 23.0026 150.398 23.8061 149.458 25.413C148.795 26.5452 148.408 28.4809 148.297 31.22C148.242 32.0965 148.214 33.2835 148.214 34.7809V38.1774C148.214 42.3774 148.656 45.2443 149.541 46.7783C150.453 48.3122 151.864 49.0791 153.771 49.0791C155.707 49.0791 157.034 48.3852 157.753 46.9974C158.499 45.573 158.983 43.3817 159.204 40.4235Z" fill="white"/>
<path d="M191.684 55.5435H185.007L179.242 41.0809H175.095V55.5435H169.33V24.92C169.33 21.9983 169.842 19.88 170.865 18.5652C171.888 17.2139 173.602 16.5383 176.007 16.5383H180.901C183.832 16.5383 186.154 17.7252 187.868 20.0991C189.61 22.4365 190.481 25.4131 190.481 29.0287C190.481 31.6583 189.956 33.9409 188.905 35.8765C187.882 37.7757 186.61 39.0904 185.09 39.8209L191.684 55.5435ZM180.528 34.7261C181.744 34.7261 182.739 34.1783 183.514 33.0826C184.315 31.9504 184.716 30.5626 184.716 28.9191C184.716 27.2391 184.329 25.8878 183.555 24.8652C182.809 23.8426 181.799 23.3313 180.528 23.3313H177.666C175.952 23.3313 175.095 24.4817 175.095 26.7826V34.7261H180.528Z" fill="white"/>
<path d="M216.899 34.233V37.1913C216.899 43.7287 215.959 48.4765 214.078 51.4348C212.226 54.393 209.24 55.8722 205.121 55.8722C201.001 55.8722 198.015 54.393 196.163 51.4348C194.338 48.4765 193.425 43.6739 193.425 37.027V34.1783C193.425 28.1156 194.352 23.6052 196.204 20.647C198.084 17.6887 201.042 16.2096 205.079 16.2096C209.143 16.2096 212.129 17.707 214.037 20.7017C215.945 23.6965 216.899 28.207 216.899 34.233ZM211.134 37.027V35C211.134 31.4939 210.802 28.7 210.139 26.6183C209.364 24.2078 207.706 23.0026 205.162 23.0026C202.591 23.0026 200.918 24.2078 200.144 26.6183C199.508 28.5904 199.19 31.3843 199.19 35V37.027C199.19 41.7383 199.688 44.9156 200.683 46.5591C201.07 47.253 201.637 47.8556 202.383 48.367C203.158 48.8417 204.07 49.0791 205.121 49.0791C206.199 49.0791 207.111 48.8417 207.858 48.367C208.604 47.8922 209.185 47.3078 209.599 46.6139C210.014 45.92 210.332 45.007 210.553 43.8748C210.94 42.0852 211.134 39.8026 211.134 37.027Z" fill="white"/>
<path d="M240.66 23.3313H232.739V55.5435H226.974V23.3313H219.094V16.5383H240.66V23.3313Z" fill="white"/>
<path d="M263.661 55.5435H253.21C249.892 55.5435 247.556 54.7948 246.201 53.2974C244.874 51.7635 244.21 49.0791 244.21 45.2444V16.5383H263.661V23.3313H249.975V32.48H259.555L259.14 39.273H249.975V44.6965C249.975 46.2304 250.237 47.2896 250.763 47.8739C251.288 48.4583 252.242 48.7504 253.624 48.7504H263.661V55.5435Z" fill="white"/>
<path d="M290.221 55.5435H284.208L282.549 48.8052H272.637L271.02 55.5435H265.006L274.462 19.8252C274.876 18.5835 275.333 17.7252 275.83 17.2504C276.356 16.7757 276.992 16.5383 277.738 16.5383C278.485 16.5383 279.079 16.7574 279.521 17.1957C279.991 17.6339 280.406 18.5104 280.765 19.8252L290.221 55.5435ZM281.222 42.3957L277.738 26.947L274.088 42.3957H281.222Z" fill="white"/>
<path d="M317.002 32.2609L311.691 47.0522C310.919 49.0244 309.951 50.0104 308.788 50.0104C307.656 50.0104 306.703 48.9696 305.928 46.8878L300.537 32.2609V55.5435H294.771V16.5383H300.453L308.788 39.0539L317.082 16.5383H322.764V55.5435H317.002V32.2609Z" fill="white"/>
<path d="M347.348 44.0391C347.348 47.7278 346.326 50.6313 344.281 52.7496C342.233 54.8313 339.621 55.8722 336.442 55.8722C333.924 55.8722 331.494 54.9591 329.144 53.133C327.98 52.1835 327.027 50.8504 326.281 49.1339C325.535 47.3809 325.161 45.3904 325.161 43.1626L330.388 42.8339C330.388 44.8061 331.021 46.34 332.294 47.4356C333.567 48.5313 334.976 49.0791 336.525 49.0791C339.981 49.0791 341.709 47.4722 341.709 44.2583C341.709 41.6287 340.534 40.0765 338.184 39.6017L333.372 38.9443C330.967 38.4696 329.06 37.3374 327.649 35.5478C326.241 33.7583 325.535 31.1835 325.535 27.8235C325.535 24.4635 326.543 21.6878 328.562 19.4965C330.581 17.3052 333.124 16.2096 336.194 16.2096C339.29 16.2096 341.778 17.2504 343.659 19.3322C345.537 21.3774 346.478 24.0252 346.478 27.2756L341.335 27.6043C340.865 24.427 339.247 22.8383 336.482 22.8383C334.797 22.8383 333.469 23.313 332.502 24.2626C331.563 25.2122 331.091 26.3443 331.091 27.6591C331.091 28.9374 331.436 29.96 332.127 30.727C332.819 31.4574 333.677 31.9139 334.699 32.0965L339.428 32.7539C344.707 33.7035 347.348 37.4652 347.348 44.0391Z" fill="white"/>
</g>
<defs>
<clipPath id="clip0">
<rect width="360" height="70" fill="white"/>
</clipPath>
</defs>
</svg>
